# xmcd
#
# Track frame offsets:
#	150
#	14362
#	32249
#	50211
#	65370
#	79773
#	98603
#	113993
#	130155
#	147072
#	162109
#	179096
#	194424
#	212469
#
# Disc length: 3070 seconds
#
# Revision: 0
# Processed by: cddbd v1.5.2PL0 Copyright (c) Steve Scherf et al.
# Submitted via: audiograbber 1.83.01
#
DISCID=c30bfc0e
DTITLE=Various  - Hitz Vol. 3, 2008 CW
DYEAR=2008
DGENRE=Country
TTITLE0=She's A Hottie - Toby Keith
TTITLE1=I'm Still A Guy - Brad Paisley
TTITLE2=Back When I Knew It All - Montgomery Gentry
TTITLE3=I Can Sleep When I'm Dead - Jason Michael Carroll
TTITLE4=Holler Back - The Lost Trailers
TTITLE5=In Color - Jamey Johnson
TTITLE6=Do You Believe Me Now - Jimmy Wayne
TTITLE7=You Can Let Go - Crystal Shawanda
TTITLE8=No Tomorrow Here Tonight - Fisher Stevenson
TTITLE9='73 - Jennifer Hanson
TTITLE10=Things A Mama Don't Know - Mica Roberts f./Tony Keith
TTITLE11=Prayer Of A Common Man - Phil Vassar
TTITLE12=I'm About To Come Alive - David Nail
TTITLE13=Best Mistake I Ever Made - Kevin Fowlers
EXTD=
EXTT0=
EXTT1=
EXTT2=
EXTT3=
EXTT4=
EXTT5=
EXTT6=
EXTT7=
EXTT8=
EXTT9=
EXTT10=
EXTT11=
EXTT12=
EXTT13=
PLAYORDER=
